<?xml version="1.0" encoding="UTF-8"?>
<svg version="1.1" xmlns="http://www.w3.org/2000/svg" width="512" height="512">
<path d="M0 0 C0.96988861 0.00182281 1.93977722 0.00364563 2.9390564 0.00552368 C17.28821045 0.05090947 31.25780259 0.54677062 45.375 3.3125 C46.28797852 3.47878906 47.20095703 3.64507812 48.14160156 3.81640625 C89.7736228 11.47613077 128.53552206 29.71874883 161.375 56.3125 C161.91946777 56.75255371 162.46393555 57.19260742 163.02490234 57.64599609 C177.09673929 69.12424863 190.31180647 81.88969064 201.375 96.3125 C202.13425781 97.24320312 202.89351563 98.17390625 203.67578125 99.1328125 C211.52465998 108.92200415 217.99417978 119.52546474 224.375 130.3125 C224.95894531 131.28993164 224.95894531 131.28993164 225.5546875 132.28710938 C240.6865154 157.91450963 250.06326154 187.9580857 254.375 217.3125 C254.55232666 218.51712891 254.72965332 219.72175781 254.91235352 220.96289062 C256.511325 232.62017354 256.7334053 244.18436098 256.6875 255.9375 C256.68476578 257.39233292 256.68476578 257.39233292 256.68197632 258.8765564 C256.63659053 273.22571045 256.14072938 287.19530259 253.375 301.3125 C253.20871094 302.22547852 253.04242188 303.13845703 252.87109375 304.07910156 C244.6647169 348.68227944 224.38935466 390.37529656 194.375 424.3125 C193.65054687 425.1478125 192.92609375 425.983125 192.1796875 426.84375 C182.4349286 437.91897413 172.03537586 448.26364912 160.375 457.3125 C159.44042969 458.075625 158.50585938 458.83875 157.54296875 459.625 C125.27895064 485.46934827 85.85395618 501.93970036 45.375 509.3125 C44.53936523 509.47621094 43.70373047 509.63992188 42.84277344 509.80859375 C15.13336479 515.09906862 -16.97593304 514.72928597 -44.625 509.3125 C-45.53797852 509.14621094 -46.45095703 508.97992188 -47.39160156 508.80859375 C-91.99477944 500.6022169 -133.68779656 480.32685466 -167.625 450.3125 C-168.4603125 449.58804687 -169.295625 448.86359375 -170.15625 448.1171875 C-181.23147413 438.3724286 -191.57614912 427.97287586 -200.625 416.3125 C-201.388125 415.37792969 -202.15125 414.44335938 -202.9375 413.48046875 C-210.77838144 403.69193247 -217.24686966 393.09498792 -223.625 382.3125 C-224.20894531 381.33506836 -224.20894531 381.33506836 -224.8046875 380.33789062 C-239.9365154 354.71049037 -249.31326154 324.6669143 -253.625 295.3125 C-253.80232666 294.10787109 -253.97965332 292.90324219 -254.16235352 291.66210938 C-255.761325 280.00482646 -255.9834053 268.44063902 -255.9375 256.6875 C-255.93567719 255.71761139 -255.93385437 254.74772278 -255.93197632 253.7484436 C-255.88659053 239.39928955 -255.39072938 225.42969741 -252.625 211.3125 C-252.45871094 210.39952148 -252.29242188 209.48654297 -252.12109375 208.54589844 C-243.9147169 163.94272056 -223.63935466 122.24970344 -193.625 88.3125 C-192.90054688 87.4771875 -192.17609375 86.641875 -191.4296875 85.78125 C-181.6849286 74.70602587 -171.28537586 64.36135088 -159.625 55.3125 C-158.69042969 54.549375 -157.75585938 53.78625 -156.79296875 53 C-147.00443247 45.15911856 -136.40748792 38.69063034 -125.625 32.3125 C-124.97337891 31.92320313 -124.32175781 31.53390625 -123.65039062 31.1328125 C-98.02299037 16.0009846 -67.9794143 6.62423846 -38.625 2.3125 C-37.42037109 2.13517334 -36.21574219 1.95784668 -34.97460938 1.77514648 C-23.31732646 0.176175 -11.75313902 -0.0459053 0 0 Z M50.93945312 181.52099609 C50.13849213 182.32166504 49.33753113 183.12233398 48.51229858 183.94726562 C45.88884196 186.57210594 43.27252419 189.20393981 40.65625 191.8359375 C38.82966156 193.66625948 37.00262852 195.49613788 35.1751709 197.32559204 C30.87222558 201.63537086 26.57375956 205.94956979 22.27747488 210.26598704 C17.38173579 215.18416341 12.48024414 220.09658981 7.57828617 225.00856662 C-2.49584152 235.1035396 -12.56280691 245.20563181 -22.625 255.3125 C-25.50189293 253.92878033 -27.54836539 252.62712101 -29.78198242 250.33496094 C-30.37327438 249.73383484 -30.96456635 249.13270874 -31.57377625 248.5133667 C-32.20298477 247.86442444 -32.8321933 247.21548218 -33.48046875 246.546875 C-34.83906382 245.16784176 -36.1977921 243.78893974 -37.55664062 242.41015625 C-39.68083061 240.24267535 -41.80247489 238.07278163 -43.92114258 235.89990234 C-45.97590396 233.79638392 -48.04017563 231.70254688 -50.10546875 229.609375 C-50.72455612 228.96852966 -51.34364349 228.32768433 -51.98149109 227.66741943 C-56.45201364 223.14768876 -61.2336798 219.66506815 -66.625 216.3125 C-67.98625 215.44625 -67.98625 215.44625 -69.375 214.5625 C-79.38901224 210.71095683 -89.25782788 210.48403213 -99.25 214.3203125 C-110.15248584 219.3394447 -117.50382426 226.89443843 -121.6953125 238.19921875 C-124.69227273 248.52658171 -124.04667747 258.30680892 -119.49009705 268.08895874 C-117.45091686 271.61337667 -115.03534256 274.43941384 -112.24047852 277.36181641 C-111.71392701 277.92180643 -111.18737551 278.48179646 -110.6448679 279.05875587 C-104.722442 285.32783057 -98.66966066 291.46999175 -92.58984375 297.5859375 C-91.99675478 298.183102 -91.40366581 298.78026649 -90.79260445 299.39552689 C-87.66401426 302.54472038 -84.53234288 305.69081238 -81.39819336 308.83447266 C-78.19381456 312.04998096 -75.00131588 315.27702913 -71.81117916 318.50665855 C-69.32209959 321.02202114 -66.8240422 323.52832503 -64.32357979 326.03236771 C-63.14301798 327.21774957 -61.96578733 328.40646013 -60.79221916 329.59876633 C-50.28129699 340.26729322 -40.1850227 349.51930827 -24.375 349.6875 C-6.91655777 349.39480422 2.97157099 339.01713056 14.67456055 327.31933594 C15.77905583 326.22247852 16.88394598 325.12601861 17.98919678 324.02992249 C20.96703554 321.07386692 23.93842597 318.11141448 26.90794349 315.14700222 C28.76823917 313.29036741 30.6298222 311.43503308 32.49183083 309.58011627 C39.00098245 303.09539662 45.50444938 296.60503189 52.00317383 290.10986328 C58.04044099 284.07623315 64.0907246 278.05587342 70.14705628 272.04138541 C75.36555239 266.85767204 80.57429639 261.66429049 85.77577811 256.46350503 C88.87415659 253.3659162 91.97630859 250.27236059 95.08856773 247.18871307 C98.01609814 244.28750262 100.93122644 241.37436271 103.83763123 238.45199394 C104.89987808 237.38794405 105.96632771 236.32806881 107.03746986 235.27297401 C116.87555964 225.57323725 124.12798151 215.65991191 124.4375 201.44140625 C124.01092007 191.19015733 120.62038787 181.61662836 113.4609375 174.12890625 C103.86267984 165.7708729 94.81035964 162.80031762 82.16796875 163 C68.71867756 164.10807754 60.03556942 172.33625345 50.93945312 181.52099609 Z " fill="#000000" transform="translate(255.625,-0.3125)"/>
</svg>
