<?xml version="1.0" encoding="UTF-8"?>
<svg version="1.1" xmlns="http://www.w3.org/2000/svg" width="512" height="512">
<path d="M0 0 C0.96955627 0.00182281 1.93911255 0.00364563 2.93804932 0.00552368 C17.26979259 0.05087263 31.28395512 0.46954578 45.375 3.3125 C46.27686035 3.48942383 47.1787207 3.66634766 48.10791016 3.84863281 C54.58082573 5.14747811 60.98520862 6.65426195 67.375 8.3125 C68.62095947 8.63492676 68.62095947 8.63492676 69.89208984 8.96386719 C110.94536097 19.85173176 147.93665796 41.91035683 178.375 71.3125 C178.99584473 71.91143066 179.61668945 72.51036133 180.25634766 73.12744141 C188.15750259 80.79126503 195.70266955 88.53248394 202.375 97.3125 C202.79168945 97.85277832 203.20837891 98.39305664 203.63769531 98.94970703 C211.3209873 108.9447116 218.06342968 119.40459036 224.375 130.3125 C224.76929199 130.98974121 225.16358398 131.66698242 225.56982422 132.36474609 C240.50987689 158.33941336 249.90429683 187.750488 254.375 217.3125 C254.55160156 218.43495117 254.72820312 219.55740234 254.91015625 220.71386719 C256.5670586 232.32697743 256.77373513 243.84429945 256.75 255.5625 C256.74918427 257.08052216 256.74918427 257.08052216 256.74835205 258.62921143 C256.7076051 275.16367395 255.78386907 291.08314864 252.375 307.3125 C252.16601074 308.32779785 251.95702148 309.3430957 251.74169922 310.38916016 C239.53867212 367.82108468 206.38631217 422.58648225 159.375 458.3125 C158.83472168 458.72918945 158.29444336 459.14587891 157.73779297 459.57519531 C147.74323425 467.25814457 137.292981 474.01827934 126.375 480.3125 C125.63830078 480.73917969 124.90160156 481.16585938 124.14257812 481.60546875 C98.11009951 496.48771246 68.94554695 505.74961083 39.375 510.3125 C38.24819824 510.49055176 37.12139648 510.66860352 35.96044922 510.85205078 C24.35248463 512.50737286 12.83780861 512.71122421 1.125 512.6875 C-0.39302216 512.68668427 -0.39302216 512.68668427 -1.94171143 512.68585205 C-18.47617395 512.6451051 -34.39564864 511.72136907 -50.625 508.3125 C-52.14794678 507.99901611 -52.14794678 507.99901611 -53.70166016 507.67919922 C-111.13358468 495.47617212 -165.89898225 462.32381217 -201.625 415.3125 C-202.04168945 414.77222168 -202.45837891 414.23194336 -202.88769531 413.67529297 C-210.57064457 403.68073425 -217.33077934 393.230481 -223.625 382.3125 C-224.05167969 381.57580078 -224.47835937 380.83910156 -224.91796875 380.08007812 C-246.38923998 342.52186984 -256.10543794 299.68053236 -255.9375 256.6875 C-255.93476578 255.23316559 -255.93476578 255.23316559 -255.93197632 253.74945068 C-255.88662737 239.41770741 -255.46795422 225.40354488 -252.625 211.3125 C-252.44807617 210.41063965 -252.27115234 209.5087793 -252.08886719 208.57958984 C-250.79002189 202.10667427 -249.28323805 195.70229138 -247.625 189.3125 C-247.41004883 188.48186035 -247.19509766 187.6512207 -246.97363281 186.79541016 C-236.08576824 145.74213903 -214.02714317 108.75084204 -184.625 78.3125 C-184.02606934 77.69165527 -183.42713867 77.07081055 -182.81005859 76.43115234 C-175.14623497 68.52999741 -167.40501606 60.98483045 -158.625 54.3125 C-158.08472168 53.89581055 -157.54444336 53.47912109 -156.98779297 53.04980469 C-146.9927884 45.3665127 -136.53290964 38.62407032 -125.625 32.3125 C-124.94775879 31.91820801 -124.27051758 31.52391602 -123.57275391 31.11767578 C-97.65376191 16.20964629 -68.16148362 6.65098181 -38.625 2.3125 C-37.42037109 2.13517334 -36.21574219 1.95784668 -34.97460938 1.77514648 C-23.3173269 0.17617506 -11.75313934 -0.04590972 0 0 Z M-82.71937561 125.28662109 C-83.64092941 126.21039551 -84.56248322 127.13416992 -85.51196289 128.0859375 C-86.01929459 128.59312317 -86.52662628 129.10030884 -87.04933167 129.62286377 C-88.73448601 131.30871772 -90.41606561 132.99809193 -92.09765625 134.6875 C-93.26186234 135.8535701 -94.42628863 137.01942037 -95.59092712 138.18505859 C-98.66245734 141.26041532 -101.73097337 144.33876277 -104.79888916 147.41772461 C-107.92727597 150.55632269 -111.05847942 153.6921079 -114.18945312 156.828125 C-120.337409 162.98682055 -126.48218615 169.14867571 -132.625 175.3125 C-128.3757125 180.3868445 -123.93394515 185.14259549 -119.24267578 189.80834961 C-118.52978897 190.52138245 -117.81690216 191.23441528 -117.08241272 191.96905518 C-114.74741086 194.30336557 -112.40889705 196.6341231 -110.0703125 198.96484375 C-108.44199116 200.59129819 -106.81389182 202.21797491 -105.18600464 203.84486389 C-100.91720984 208.10985497 -96.6454196 212.37183336 -92.37298584 216.63317871 C-88.00725097 220.98865322 -83.64437329 225.34698773 -79.28125 229.70507812 C-70.73195118 238.24367747 -62.17948323 246.77909493 -53.625 255.3125 C-54.97176917 258.31273948 -56.46411901 260.39970005 -58.78872681 262.71673584 C-59.439366 263.37012436 -60.09000519 264.02351288 -60.76036072 264.69670105 C-61.47317703 265.40232681 -62.18599335 266.10795258 -62.92041016 266.83496094 C-63.67172714 267.58656998 -64.42304413 268.33817902 -65.1971283 269.11256409 C-67.68139513 271.59543771 -70.17267095 274.0711523 -72.6640625 276.546875 C-74.38799849 278.26708084 -76.11149341 279.9877288 -77.83456421 281.70880127 C-82.37084251 286.23744332 -86.91309494 290.76004715 -91.456604 295.28143311 C-96.09186953 299.89624014 -100.72147863 304.51671396 -105.3515625 309.13671875 C-114.43717086 318.20087732 -123.52890788 327.2588628 -132.625 336.3125 C-129.12691226 340.46951684 -125.57115486 344.49050579 -121.72119141 348.32983398 C-120.80069 349.25025986 -119.8801886 350.17068573 -118.93179321 351.1190033 C-117.94677076 352.09892152 -116.96169259 353.07878374 -115.9765625 354.05859375 C-114.95358694 355.07970048 -113.93083472 356.101031 -112.90829468 357.12257385 C-110.23746639 359.78961353 -107.56364718 362.45363436 -104.88916016 365.11700439 C-102.15213264 367.8437385 -99.41799099 370.57336305 -96.68359375 373.30273438 C-91.33352452 378.64213089 -85.98028727 383.97833652 -80.625 389.3125 C-75.5506555 385.0632125 -70.79490451 380.62144515 -66.12915039 375.93017578 C-65.41611755 375.21728897 -64.70308472 374.50440216 -63.96844482 373.76991272 C-61.63413443 371.43491086 -59.3033769 369.09639705 -56.97265625 366.7578125 C-55.34620181 365.12949116 -53.71952509 363.50139182 -52.09263611 361.87350464 C-47.82764503 357.60470984 -43.56566664 353.3329196 -39.30432129 349.06048584 C-34.94884678 344.69475097 -30.59051227 340.33187329 -26.23242188 335.96875 C-17.69382253 327.41945118 -9.15840507 318.86698323 -0.625 310.3125 C2.37523948 311.65926917 4.46220005 313.15161901 6.77923584 315.47622681 C7.43262436 316.126866 8.08601288 316.77750519 8.75920105 317.44786072 C9.81763969 318.51708519 9.81763969 318.51708519 10.89746094 319.60791016 C11.64906998 320.35922714 12.40067902 321.11054413 13.17506409 321.8846283 C15.65793771 324.36889513 18.1336523 326.86017095 20.609375 329.3515625 C22.32958084 331.07549849 24.0502288 332.79899341 25.77130127 334.52206421 C30.29994332 339.05834251 34.82254715 343.60059494 39.34393311 348.144104 C43.95874014 352.77936953 48.57921396 357.40897863 53.19921875 362.0390625 C62.26337732 371.12467086 71.3213628 380.21640788 80.375 389.3125 C84.53201684 385.81441226 88.55300579 382.25865486 92.39233398 378.40869141 C93.31275986 377.48819 94.23318573 376.5676886 95.1815033 375.61929321 C96.16142152 374.63427076 97.14128374 373.64919259 98.12109375 372.6640625 C99.14220048 371.64108694 100.163531 370.61833472 101.18507385 369.59579468 C103.85211353 366.92496639 106.51613436 364.25114718 109.17950439 361.57666016 C111.9062385 358.83963264 114.63586305 356.10549099 117.36523438 353.37109375 C122.70463089 348.02102452 128.04083652 342.66778727 133.375 337.3125 C129.1257125 332.2381555 124.68394515 327.48240451 119.99267578 322.81665039 C118.92334557 321.74710114 118.92334557 321.74710114 117.83241272 320.65594482 C115.49741086 318.32163443 113.15889705 315.9908769 110.8203125 313.66015625 C109.19199116 312.03370181 107.56389182 310.40702509 105.93600464 308.78013611 C101.66720984 304.51514503 97.3954196 300.25316664 93.12298584 295.99182129 C88.75725097 291.63634678 84.39437329 287.27801227 80.03125 282.91992188 C71.48195118 274.38132253 62.92948323 265.84590507 54.375 257.3125 C55.72176917 254.31226052 57.21411901 252.22529995 59.53872681 249.90826416 C60.189366 249.25487564 60.84000519 248.60148712 61.51036072 247.92829895 C62.22317703 247.22267319 62.93599335 246.51704742 63.67041016 245.79003906 C64.42172714 245.03843002 65.17304413 244.28682098 65.9471283 243.51243591 C68.43139513 241.02956229 70.92267095 238.5538477 73.4140625 236.078125 C75.13799849 234.35791916 76.86149341 232.6372712 78.58456421 230.91619873 C83.12084251 226.38755668 87.66309494 221.86495285 92.206604 217.34356689 C96.84186953 212.72875986 101.47147863 208.10828604 106.1015625 203.48828125 C115.18717086 194.42412268 124.27890788 185.3661372 133.375 176.3125 C129.87691226 172.15548316 126.32115486 168.13449421 122.47119141 164.29516602 C121.55069 163.37474014 120.6301886 162.45431427 119.68179321 161.5059967 C118.69677076 160.52607848 117.71169259 159.54621626 116.7265625 158.56640625 C115.70358694 157.54529952 114.68083472 156.523969 113.65829468 155.50242615 C110.98746639 152.83538647 108.31364718 150.17136564 105.63916016 147.50799561 C102.90213264 144.7812615 100.16799099 142.05163695 97.43359375 139.32226562 C92.08352452 133.98286911 86.73028727 128.64666348 81.375 123.3125 C76.3006555 127.5617875 71.54490451 132.00355485 66.87915039 136.69482422 C65.80960114 137.76415443 65.80960114 137.76415443 64.71844482 138.85508728 C62.38413443 141.19008914 60.0533769 143.52860295 57.72265625 145.8671875 C56.09620181 147.49550884 54.46952509 149.12360818 52.84263611 150.75149536 C48.57764503 155.02029016 44.31566664 159.2920804 40.05432129 163.56451416 C35.69884678 167.93024903 31.34051227 172.29312671 26.98242188 176.65625 C18.44382253 185.20554882 9.90840507 193.75801677 1.375 202.3125 C-1.62502888 200.96614219 -3.70842506 199.47577469 -6.02250671 197.14877319 C-7.00042175 196.17281441 -7.00042175 196.17281441 -7.99809265 195.17713928 C-8.70214737 194.46432297 -9.40620209 193.75150665 -10.1315918 193.01708984 C-10.88159454 192.26577286 -11.63159729 191.51445587 -12.40432739 190.7403717 C-14.88225129 188.25595633 -17.35312935 185.76464917 -19.82421875 183.2734375 C-21.54195701 181.54943043 -23.26021038 179.82593645 -24.97895813 178.10293579 C-29.50210883 173.56647749 -34.01965906 169.02448602 -38.53564453 164.480896 C-45.77415509 157.19926876 -53.01941228 149.9243692 -60.26786232 142.65263748 C-62.80576404 140.10446688 -65.34025198 137.55293594 -67.87443542 135.00106812 C-69.41837397 133.45030602 -70.96242012 131.89965104 -72.5065918 130.34912109 C-73.21671921 129.63225632 -73.92684662 128.91539154 -74.65849304 128.17680359 C-75.30197693 127.53180405 -75.94546082 126.8868045 -76.60844421 126.22225952 C-77.17015162 125.65703268 -77.73185904 125.09180584 -78.31058788 124.50945091 C-80.49618109 122.51917119 -80.43548294 123.1338646 -82.71937561 125.28662109 Z " fill="#000000" transform="translate(255.625,-0.3125)"/>
</svg>
