<?xml version="1.0" encoding="UTF-8"?>
<svg version="1.1" xmlns="http://www.w3.org/2000/svg" width="512" height="512">
<path d="M0 0 C8.67964949 5.17564285 12.94439559 11.76287428 16.109375 21.2578125 C16.439375 26.5378125 16.769375 31.8178125 17.109375 37.2578125 C29.319375 37.2578125 41.529375 37.2578125 54.109375 37.2578125 C54.109375 31.9778125 54.109375 26.6978125 54.109375 21.2578125 C55.32293401 17.61713547 56.1619203 15.34555317 58.109375 12.2578125 C58.46 11.63648438 58.810625 11.01515625 59.171875 10.375 C63.4487622 3.51416011 70.40199542 -0.68123985 78.109375 -2.7421875 C89.45490541 -3.76281053 99.08517425 -2.87216515 108.359375 4.2578125 C114.4223764 9.95186858 118.26491124 18.01701095 119.109375 26.2578125 C119.109375 29.8878125 119.109375 33.5178125 119.109375 37.2578125 C130.659375 37.2578125 142.209375 37.2578125 154.109375 37.2578125 C154.109375 34.2878125 154.109375 31.3178125 154.109375 28.2578125 C154.80968266 19.19003568 157.65276097 11.63204919 164.22265625 5.18359375 C173.83386029 -2.73444481 182.9616145 -3.83113017 195.109375 -2.7421875 C204.61493198 -0.47547776 210.4946688 4.8878642 215.8125 12.87890625 C218.87282057 18.49256656 219.38107922 23.3922405 219.234375 29.6328125 C219.22535156 30.36886719 219.21632813 31.10492188 219.20703125 31.86328125 C219.18367644 33.6616013 219.14781336 35.45975161 219.109375 37.2578125 C219.72165955 37.24448883 220.33394409 37.23116516 220.96478271 37.21743774 C227.38955483 37.08376499 233.81392634 36.99381902 240.23974609 36.92822266 C242.63151112 36.8982167 245.02316768 36.85739799 247.41455078 36.80517578 C273.98930893 36.2397554 273.98930893 36.2397554 283.98925781 44.88256836 C285.62193642 46.58339826 286.82045671 48.2871149 288.109375 50.2578125 C288.47250258 50.80453487 288.83563017 51.35125725 289.20976162 51.91454697 C293.62694695 60.03096584 292.67706374 69.41174105 292.64282227 78.37597656 C292.64988627 80.31991224 292.65863331 82.26384243 292.66893005 84.20776367 C292.69137208 89.46781993 292.68849756 94.72757459 292.67960858 99.98766041 C292.6744903 104.38172176 292.68179756 108.77572685 292.68908066 113.1697824 C292.706061 123.53218387 292.70253 133.89443799 292.68579102 144.25683594 C292.66884437 154.94810365 292.68474348 165.63896382 292.7170139 176.33018708 C292.74368751 185.51511476 292.75099262 194.69991539 292.74249882 203.88487792 C292.73756645 209.36849635 292.73980309 214.85186918 292.76028633 220.33545685 C292.77861016 225.4869876 292.77272507 230.6379298 292.74808693 235.78942871 C292.74306989 237.68047541 292.74659189 239.57156673 292.75923538 241.46257782 C292.77512205 244.04248454 292.76025843 246.62044228 292.73756409 249.20025635 C292.74939982 249.94996083 292.76123554 250.6996653 292.77342993 251.4720881 C292.70283959 255.41652734 292.23163155 257.10584711 289.72636318 260.21990585 C286.11992167 263.02832172 283.90957261 262.97402967 279.48828125 262.75 C275.80836573 261.98863817 274.23092244 260.26904113 272.109375 257.2578125 C262.48845553 218.77413461 271.109375 177.9258797 271.109375 138.2578125 C148.679375 138.2578125 26.249375 138.2578125 -99.890625 138.2578125 C-99.7875 194.3784375 -99.684375 250.4990625 -99.578125 308.3203125 C-99.55322998 326.05918213 -99.52833496 343.79805176 -99.50268555 362.07446289 C-99.46613357 377.93603248 -99.46613357 377.93603248 -99.4256134 393.79759216 C-99.40763207 400.87812638 -99.39781525 407.95861479 -99.39350891 415.03916931 C-99.38851627 423.20211754 -99.37322834 431.36496849 -99.34514116 439.52787116 C-99.33109448 443.70487746 -99.32172492 447.88174748 -99.32558572 452.05877888 C-99.32898833 455.83566504 -99.31866817 459.61225461 -99.29738235 463.38908005 C-99.28961588 465.40206519 -99.29657142 467.41509049 -99.30404377 469.42807674 C-99.33968812 478.31476793 -99.33968812 478.31476793 -95.890625 486.2578125 C-91.73452974 488.02102293 -88.16210764 488.5081243 -83.67457676 488.50949478 C-82.44079212 488.51471028 -81.20700748 488.51992577 -79.93583542 488.52529931 C-78.5748632 488.52097563 -77.21389157 488.51646234 -75.85292053 488.51177979 C-74.40079973 488.5140849 -72.9486801 488.51726176 -71.4965629 488.52123427 C-67.51024754 488.52958408 -63.52402793 488.52545614 -59.53771222 488.51926184 C-55.23702351 488.51473908 -50.93635133 488.52172026 -46.63566589 488.52722168 C-38.21191412 488.53611942 -29.78819797 488.5341919 -21.3644448 488.5283964 C-14.51824849 488.52388112 -7.67206217 488.52326643 -0.82586479 488.52544403 C0.14822836 488.5257505 1.12232152 488.52605696 2.12593265 488.52637272 C4.10474733 488.52701216 6.08356201 488.52766059 8.06237669 488.5283179 C26.62234489 488.53402239 45.18229335 488.52746159 63.74225832 488.51671717 C79.66827 488.50778295 95.59425252 488.5093324 111.52026367 488.51855469 C130.01190644 488.52925764 148.50353189 488.53347157 166.99517733 488.52733016 C168.96705123 488.52669306 170.93892512 488.52606432 172.91079903 488.52544403 C173.88101093 488.52513548 174.85122283 488.52482693 175.8508351 488.52450903 C182.68845807 488.52278206 189.52607006 488.52569727 196.36369133 488.53040314 C204.69704524 488.5360123 213.03036146 488.53449482 221.36371105 488.52384165 C225.61567552 488.51858522 229.86757716 488.51652772 234.11954117 488.52313995 C238.01238504 488.52910215 241.90510789 488.52581981 245.7979408 488.51518485 C247.20568166 488.51295196 248.61343276 488.51408463 250.02116703 488.51893643 C259.79456656 488.73282523 259.79456656 488.73282523 269.109375 486.2578125 C270.16232328 483.09896767 270.23921575 480.87059902 270.24740601 477.55328369 C270.25558601 475.77005707 270.25558601 475.77005707 270.26393127 473.95080566 C270.2649736 472.64478394 270.26601593 471.33876221 270.26708984 469.99316406 C270.27175869 468.60508056 270.27690237 467.21699858 270.28248596 465.82891846 C270.29376503 462.83819981 270.3022002 459.84749111 270.30860519 456.85675812 C270.31928957 452.12466222 270.33953628 447.3926377 270.36172485 442.6605835 C270.42363217 429.20376867 270.47763614 415.74695783 270.51074219 402.29003906 C270.52910393 394.8589905 270.55805998 387.42806135 270.5987469 379.99710059 C270.61979213 376.06605277 270.63527062 372.13515527 270.63755417 368.20404816 C270.63970612 364.50379306 270.65563088 360.80385083 270.68194389 357.1036911 C270.69252818 355.10479986 270.6883913 353.10584749 270.6837616 351.10693359 C270.7421795 344.7869807 270.80904582 339.74742934 274.109375 334.2578125 C277.26031633 332.15718495 278.3318116 331.91467964 281.984375 331.8203125 C282.82742188 331.78035156 283.67046875 331.74039062 284.5390625 331.69921875 C287.35889067 332.31203855 289.05390747 333.19687018 291.0445385 335.30155373 C293.63138438 340.05396401 292.78769561 346.06744613 292.74047852 351.34448242 C292.74561916 352.79696527 292.75290153 354.24944187 292.76216125 355.7019043 C292.7806738 359.64247163 292.76773483 363.58236214 292.74807096 367.5229013 C292.73166604 371.65421678 292.74050064 375.78548998 292.74559021 379.91682434 C292.75011166 386.85977964 292.73424458 393.80246561 292.70629883 400.74536133 C292.67430964 408.75417465 292.67423794 416.76250054 292.6915136 424.77134818 C292.70742658 432.49049836 292.70061048 440.20947114 292.68357658 447.92861366 C292.67673215 451.20550618 292.67771178 454.48225537 292.68512154 457.75914574 C292.69283176 461.62777349 292.6805056 465.49585297 292.65327263 469.36438751 C292.64643457 470.77761268 292.64624119 472.1908895 292.65348816 473.60411263 C292.70021147 483.90999805 291.64191646 493.83059593 284.10464805 501.54862648 C275.311516 509.08097817 265.92966345 510.13144573 254.77636719 510.01971436 C253.25662268 510.02664096 251.73688824 510.0361791 250.21717453 510.04807782 C246.07139705 510.07297437 241.92645517 510.06081529 237.78067589 510.04216051 C233.29794211 510.02852861 228.81534734 510.04956699 224.3326416 510.06604004 C215.56303714 510.0926653 206.79374147 510.08698155 198.0241251 510.06956419 C190.89443499 510.05599232 183.76483117 510.05418549 176.63513184 510.06070709 C175.61888945 510.06162649 174.60264707 510.06254589 173.55560946 510.06349315 C171.49088062 510.06541158 169.42615181 510.06735686 167.36142302 510.0693287 C148.01815986 510.08642199 128.67506754 510.0667911 109.33183241 510.0345265 C92.74847983 510.00772137 76.16537928 510.01237796 59.58203125 510.04003906 C40.30615213 510.07217644 21.03042259 510.08477418 1.75452042 510.06636548 C-0.30244698 510.06445426 -2.3594144 510.06256804 -4.41638184 510.06070709 C-5.42834602 510.05978144 -6.4403102 510.05885579 -7.48293996 510.05790208 C-14.6008459 510.05273001 -21.71865665 510.06144755 -28.83654785 510.07558441 C-37.51556941 510.09244357 -46.19426554 510.08779348 -54.87325001 510.05589995 C-59.29818434 510.04017303 -63.72257686 510.03388398 -68.14750671 510.05379486 C-72.20416073 510.07177201 -76.25977458 510.06169073 -80.3163352 510.02992955 C-81.77781197 510.02326851 -83.23937798 510.02654409 -84.7007966 510.04118428 C-95.0732229 510.13706171 -103.68988323 508.49327525 -111.81315231 501.63456798 C-113.40693203 499.92784993 -114.65526553 498.23717219 -115.890625 496.2578125 C-116.43552615 495.40521983 -116.43552615 495.40521983 -116.99143541 494.53540307 C-121.08461176 486.81235239 -120.45319943 478.49726611 -120.41201782 470.00773621 C-120.41806326 468.2430999 -120.42584345 466.47846883 -120.43520296 464.71384698 C-120.4557499 459.87738412 -120.45140282 455.04121799 -120.44284177 450.20473087 C-120.43790488 444.9837194 -120.4559386 439.76277916 -120.47091675 434.54179382 C-120.4964086 424.31801637 -120.49999839 414.09434398 -120.49531622 403.8705401 C-120.49174922 395.55944172 -120.49525055 387.24837522 -120.50376511 378.93728065 C-120.50495548 377.75411013 -120.50614586 376.5709396 -120.50737231 375.35191542 C-120.50979583 372.948242 -120.5122241 370.54456858 -120.51465707 368.14089517 C-120.53640747 345.60155581 -120.53208344 323.06227631 -120.51988737 300.52293358 C-120.50954992 279.90978419 -120.53205758 259.29682385 -120.57008381 238.68371185 C-120.60884173 217.51143873 -120.62535237 196.33925505 -120.61783731 175.16694623 C-120.61401327 163.28301447 -120.61898826 151.39924361 -120.64726639 139.51534081 C-120.67109752 129.39798829 -120.67390011 119.28089571 -120.64968605 109.16353961 C-120.63791066 104.00346747 -120.63570268 98.8438707 -120.65969086 93.68383026 C-120.6814166 88.95542663 -120.67519436 84.22789504 -120.64716749 79.49953214 C-120.64187559 77.79367742 -120.64660073 76.08775427 -120.66263922 74.38196673 C-120.75857193 63.41323752 -119.71940207 53.90723723 -112.14943945 45.27148122 C-105.70207506 39.06064687 -98.01938385 36.80197727 -89.24766541 36.80462646 C-88.20042801 36.82527161 -87.15319061 36.84591675 -86.07421875 36.8671875 C-84.97715103 36.87284729 -83.88008331 36.87850708 -82.74977112 36.88433838 C-79.27542894 36.90657476 -75.80215093 36.95674868 -72.328125 37.0078125 C-69.96030144 37.0278939 -67.59246158 37.04614178 -65.22460938 37.0625 C-59.44625679 37.10639766 -53.66851695 37.17318145 -47.890625 37.2578125 C-47.90947754 36.16734619 -47.92833008 35.07687988 -47.94775391 33.95336914 C-47.96300348 32.50407356 -47.97779018 31.05477305 -47.9921875 29.60546875 C-48.00580322 28.88895142 -48.01941895 28.17243408 -48.03344727 27.4342041 C-48.09709539 18.8784268 -45.46770765 12.07835049 -39.59375 5.7890625 C-28.99673947 -3.73852495 -12.95346121 -6.21592266 0 0 Z M-25.890625 23.2578125 C-27.03370036 25.54396322 -27.04041625 26.88581961 -27.08349609 29.42871094 C-27.10759048 30.72080475 -27.10759048 30.72080475 -27.13217163 32.03900146 C-27.17667046 35.9853028 -27.21769833 39.93143596 -27.24072266 43.87792969 C-27.25726815 45.95747072 -27.2845395 48.03695522 -27.32275391 50.11621094 C-27.3776143 53.11683613 -27.39941201 56.11612783 -27.4140625 59.1171875 C-27.43673187 60.04239197 -27.45940125 60.96759644 -27.48275757 61.9208374 C-27.46836916 66.33324837 -27.31956668 69.32030031 -24.48291016 72.82910156 C-20.95973651 76.12996156 -18.86431448 76.6724298 -13.9921875 76.6015625 C-10.25164148 75.98972598 -8.37671288 73.98067065 -5.890625 71.2578125 C-3.86379641 66.53920346 -3.58355898 62.10804496 -3.58984375 57.04296875 C-3.58555862 56.26900253 -3.5812735 55.49503632 -3.57685852 54.69761658 C-3.57114061 53.06803359 -3.57059614 51.43842509 -3.57495117 49.80883789 C-3.57811125 47.3310954 -3.55462111 44.85454836 -3.52929688 42.37695312 C-3.52702344 40.78645982 -3.52632059 39.19596335 -3.52734375 37.60546875 C-3.518134 36.87296402 -3.50892426 36.14045929 -3.49943542 35.38575745 C-3.55400485 29.24570484 -4.87059688 24.50870098 -9.078125 19.8203125 C-16.13048953 15.90233221 -20.7286897 17.96997634 -25.890625 23.2578125 Z M76.109375 23.2578125 C74.96629964 25.54396322 74.95958375 26.88581961 74.91650391 29.42871094 C74.89240952 30.72080475 74.89240952 30.72080475 74.86782837 32.03900146 C74.82332954 35.9853028 74.78230167 39.93143596 74.75927734 43.87792969 C74.74273185 45.95747072 74.7154605 48.03695522 74.67724609 50.11621094 C74.6223857 53.11683613 74.60058799 56.11612783 74.5859375 59.1171875 C74.56326813 60.04239197 74.54059875 60.96759644 74.51724243 61.9208374 C74.53163084 66.33324837 74.68043332 69.32030031 77.51708984 72.82910156 C81.12316992 76.20763656 83.11702554 76.56370624 88.078125 76.46484375 C91.17189045 76.14951766 92.78338375 75.31797618 95.109375 73.2578125 C97.93999092 67.85897644 98.55525236 63.54738598 98.5078125 57.5078125 C98.51068268 56.69086914 98.51355286 55.87392578 98.51651001 55.03222656 C98.51854073 53.31444602 98.5130807 51.59664183 98.50048828 49.87890625 C98.48441976 47.26509383 98.50037019 44.65282742 98.51953125 42.0390625 C98.51754864 40.36197579 98.5137046 38.68489003 98.5078125 37.0078125 C98.51388519 36.23469727 98.51995789 35.46158203 98.5262146 34.66503906 C98.45082233 28.78395991 97.37316167 23.95694277 93.484375 19.3203125 C86.46292912 16.17913934 81.19075495 17.92236355 76.109375 23.2578125 Z M177.109375 23.2578125 C175.08254641 27.97642154 174.80230898 32.40758004 174.80859375 37.47265625 C174.80430862 38.24662247 174.8000235 39.02058868 174.79560852 39.81800842 C174.78989061 41.44759141 174.78934614 43.07719991 174.79370117 44.70678711 C174.79686125 47.1845296 174.77337111 49.66107664 174.74804688 52.13867188 C174.74577344 53.72916518 174.74507059 55.31966165 174.74609375 56.91015625 C174.736884 57.64266098 174.72767426 58.37516571 174.71818542 59.12986755 C174.77275485 65.26992016 176.08934688 70.00692402 180.296875 74.6953125 C183.94694456 76.72312892 187.07970534 77.19439588 191.109375 76.2578125 C194.1253482 74.49632815 196.52307939 72.43040372 198.109375 69.2578125 C198.22349933 67.87071426 198.27867085 66.47849953 198.30224609 65.08691406 C198.31830902 64.22551819 198.33437195 63.36412231 198.35092163 62.47662354 C198.39542046 58.5303222 198.43644833 54.58418904 198.45947266 50.63769531 C198.47601815 48.55815428 198.5032895 46.47866978 198.54150391 44.39941406 C198.5963643 41.39878887 198.61816201 38.39949717 198.6328125 35.3984375 C198.65548187 34.47323303 198.67815125 33.54802856 198.70150757 32.5947876 C198.68711916 28.18237663 198.53831668 25.19532469 195.70166016 21.68652344 C192.17848651 18.38566344 190.08306448 17.8431952 185.2109375 17.9140625 C181.47039148 18.52589902 179.59546288 20.53495435 177.109375 23.2578125 Z M-96.890625 60.2578125 C-104.3854508 77.74573937 -99.890625 98.23151491 -99.890625 117.2578125 C22.539375 117.2578125 144.969375 117.2578125 271.109375 117.2578125 C271.109375 99.4378125 271.109375 81.6178125 271.109375 63.2578125 C266.1111553 57.97688092 266.1111553 57.97688092 259.99591064 57.13755798 C258.86339874 57.1408889 258.86339874 57.1408889 257.70800781 57.14428711 C256.8474176 57.14436264 255.98682739 57.14443817 255.10015869 57.14451599 C254.18023132 57.14967728 253.26030396 57.15483856 252.3125 57.16015625 C251.36372986 57.1615712 250.41495972 57.16298615 249.43743896 57.16444397 C246.41138538 57.17003508 243.38540617 57.18258598 240.359375 57.1953125 C238.30599065 57.20032865 236.25260514 57.20489135 234.19921875 57.20898438 C229.16924224 57.22000161 224.13932122 57.23726017 219.109375 57.2578125 C219.0326355 58.90112549 219.0326355 58.90112549 218.9543457 60.57763672 C218.87751621 62.0309457 218.80026406 63.48423238 218.72265625 64.9375 C218.67389343 66.01777466 218.67389343 66.01777466 218.62414551 67.11987305 C218.30490755 72.85305937 217.07567402 77.29619723 214.109375 82.2578125 C213.2740625 83.835625 213.2740625 83.835625 212.421875 85.4453125 C207.89212827 90.95446393 201.97724881 94.42749894 195.109375 96.2578125 C184.04433351 97.25320326 175.32851493 96.32417322 165.859375 90.1328125 C156.43191688 80.27683355 155.69197554 70.4461503 154.109375 57.2578125 C142.559375 57.2578125 131.009375 57.2578125 119.109375 57.2578125 C118.449375 62.8678125 117.789375 68.4778125 117.109375 74.2578125 C115.52983702 78.08195708 114.2952879 80.92177312 112.109375 84.2578125 C111.5525 85.1653125 110.995625 86.0728125 110.421875 87.0078125 C102.59922836 94.61903626 94.78848666 96.53635556 84.25634766 96.57910156 C78.4396321 96.48138602 74.09740315 95.33644493 69.109375 92.2578125 C68.0575 91.7009375 67.005625 91.1440625 65.921875 90.5703125 C60.17148393 85.84221318 57.43881018 80.24611803 55.109375 73.2578125 C54.779375 67.9778125 54.449375 62.6978125 54.109375 57.2578125 C41.899375 57.2578125 29.689375 57.2578125 17.109375 57.2578125 C16.449375 62.5378125 15.789375 67.8178125 15.109375 73.2578125 C12.12751963 82.51184639 8.62815547 88.03063767 0.26953125 93.1796875 C-7.82588282 97.22007499 -17.92107735 97.80022355 -26.6875 95.53515625 C-28.89829043 94.59366446 -30.86049547 93.53977835 -32.890625 92.2578125 C-33.52355469 91.89558594 -34.15648438 91.53335938 -34.80859375 91.16015625 C-41.48794162 86.95886068 -44.7524714 80.69712907 -46.890625 73.2578125 C-47.24796062 70.47073166 -47.39383866 67.68897284 -47.515625 64.8828125 C-47.57363281 63.77873047 -47.57363281 63.77873047 -47.6328125 62.65234375 C-47.72620498 60.85453844 -47.8094621 59.05621142 -47.890625 57.2578125 C-53.74386852 57.18339231 -59.5968337 57.12908268 -65.45043945 57.09301758 C-67.4397461 57.07797526 -69.42901983 57.05753627 -71.41821289 57.03149414 C-74.28540189 56.99491004 -77.15215059 56.97804032 -80.01953125 56.96484375 C-80.90210098 56.94935989 -81.78467072 56.93387604 -82.69398499 56.91792297 C-88.17170864 56.91644594 -92.18822222 57.31867056 -96.890625 60.2578125 Z " fill="#000000" transform="translate(119.890625,2.7421875)"/>
<path d="M0 0 C6.86596194 6.17048735 12.44156828 13.88867092 12.96316385 23.36663336 C12.9752518 24.42694141 12.98733975 25.48724947 12.99979401 26.57968807 C13.02405669 28.41841532 13.02405669 28.41841532 13.04880953 30.29428858 C13.06184905 31.65696076 13.07474897 33.01963428 13.08752441 34.38230896 C13.10442772 35.82879595 13.12169291 37.27527875 13.13928938 38.72175747 C13.1862555 42.70351988 13.22668847 46.68532542 13.26572371 50.66717255 C13.29119304 53.21476738 13.31847418 55.7623365 13.34635544 58.30990601 C13.71172626 91.75063684 13.92203599 125.19248737 14.08631134 158.63474941 C14.10759316 162.89004666 14.12929897 167.14534152 14.15136719 171.40063477 C14.15683483 172.45810101 14.16230246 173.51556725 14.16793579 174.60507793 C14.25831974 191.6125487 14.43305911 208.61809874 14.64114982 225.62449156 C14.85385062 243.15692894 14.97581157 260.68838124 15.01720572 278.22206646 C15.04280154 288.03711389 15.10688847 297.84840606 15.27485657 307.66213799 C16.03880834 353.67691468 14.13861037 389.49678914 -8.95098305 430.36085629 C-11.2117409 434.50759422 -13.06449885 438.81974332 -14.89684296 443.17111874 C-16.3260572 445.89275957 -17.85431426 447.63880329 -20.1875 449.62890625 C-22.58984375 450.1953125 -22.58984375 450.1953125 -25.125 450.19140625 C-25.95902344 450.21332031 -26.79304688 450.23523438 -27.65234375 450.2578125 C-31.35986065 449.3380741 -32.69888207 447.51887642 -35.1875 444.62890625 C-36.78065701 441.76697361 -38.01997349 438.78993705 -39.26171875 435.76171875 C-39.63045609 434.89110809 -39.99919342 434.02049744 -40.37910461 433.12350464 C-41.55590936 430.33831789 -42.715897 427.54649978 -43.875 424.75390625 C-44.99221348 422.0935103 -46.11262535 419.4345101 -47.23617756 416.77678519 C-48.00876947 414.93608765 -48.77306084 413.09186809 -49.52627265 411.24315566 C-51.42537869 406.61777254 -53.39620887 402.13215447 -55.79557991 397.74305439 C-64.60448707 381.02539901 -64.60312193 365.12862366 -64.4067924 346.75505412 C-64.37133793 342.38639391 -64.39465415 338.01795355 -64.41012573 333.64923096 C-64.43130962 325.12683376 -64.39984116 316.6054371 -64.34984921 308.08319231 C-64.29362795 298.14354041 -64.29130203 288.20408345 -64.29096319 278.26429901 C-64.28859654 260.52990932 -64.23887387 242.79597573 -64.16162109 225.06176758 C-64.08680171 207.87486298 -64.04441843 190.68828973 -64.03857422 173.5012207 C-64.0382086 172.44058596 -64.03784297 171.37995122 -64.03746627 170.28717604 C-64.03710833 169.22832096 -64.03675039 168.16946588 -64.0363816 167.07852429 C-64.03565074 164.94631715 -64.03490599 162.81411002 -64.03414726 160.68190289 C-64.03377623 159.63022916 -64.0334052 158.57855543 -64.03302293 157.4950128 C-64.0258797 141.07438771 -63.98898948 124.65381334 -63.94916078 108.23323995 C-63.93513958 102.2941019 -63.92556059 96.35497586 -63.91923808 90.41582485 C-63.90913007 81.00382128 -63.88620958 71.59204709 -63.83663748 62.18016144 C-63.81424352 57.88311885 -63.79796187 53.58630054 -63.79890442 49.28919411 C-63.79952345 45.35228255 -63.7815367 41.41590087 -63.74896838 37.47912798 C-63.74037064 36.05907974 -63.73836892 34.63897208 -63.74382053 33.21890827 C-63.78714631 20.07359614 -60.83739901 10.4048036 -51.52734375 0.94140625 C-36.75882214 -12.51510547 -15.42401639 -12.40762608 0 0 Z M-36.96875 16.10546875 C-44.5441058 24.237836 -43.1875 32.58205148 -43.1875 43.62890625 C-31.3075 43.62890625 -19.4275 43.62890625 -7.1875 43.62890625 C-6.5091971 28.40994374 -6.5091971 28.40994374 -13.40625 16.10546875 C-20.46622221 10.25312336 -29.90877779 10.25312336 -36.96875 16.10546875 Z M-43.1875 64.62890625 C-43.1875 163.62890625 -43.1875 262.62890625 -43.1875 364.62890625 C-31.3075 364.62890625 -19.4275 364.62890625 -7.1875 364.62890625 C-7.1875 265.62890625 -7.1875 166.62890625 -7.1875 64.62890625 C-19.0675 64.62890625 -30.9475 64.62890625 -43.1875 64.62890625 Z M-37.1875 385.62890625 C-35.54252342 389.58759762 -33.89655964 393.54587339 -32.25 397.50390625 C-31.54713867 399.19580078 -31.54713867 399.19580078 -30.83007812 400.921875 C-30.1581543 402.53642578 -30.1581543 402.53642578 -29.47265625 404.18359375 C-29.05894775 405.17858887 -28.64523926 406.17358398 -28.21899414 407.19873047 C-27.58424734 408.69417891 -26.91403555 410.17583515 -26.1875 411.62890625 C-25.5275 411.62890625 -24.8675 411.62890625 -24.1875 411.62890625 C-22.35120918 407.48437655 -20.51896258 403.33807154 -18.6875 399.19140625 C-18.16285156 398.00740234 -17.63820313 396.82339844 -17.09765625 395.60351562 C-16.35322266 393.91645508 -16.35322266 393.91645508 -15.59375 392.1953125 C-15.13291016 391.15318604 -14.67207031 390.11105957 -14.19726562 389.03735352 C-13.12305795 386.91046196 -13.12305795 386.91046196 -13.1875 385.62890625 C-21.1075 385.62890625 -29.0275 385.62890625 -37.1875 385.62890625 Z " fill="#000000" transform="translate(499.1875,62.37109375)"/>
<path d="M0 0 C9.16878285 6.5491306 15.2041191 15.53226118 17.625 26.5625 C19.57029758 39.80548738 16.60563019 51.30435207 8.93359375 62.15234375 C2.59918115 70.04463973 -5.83961663 75.08771348 -15.75 77.25 C-30.43256601 78.1376477 -41.25143261 76.76262476 -53.23828125 67.51171875 C-61.24809768 60.29914688 -66.38088548 50.72400646 -67.12890625 39.9375 C-67.6925561 25.7296365 -64.44693006 15.01878416 -54.75 4.25 C-39.09167734 -9.74641113 -17.628733 -10.80756495 0 0 Z M-40.5 21.1875 C-45.30239972 26.80111589 -46.26849963 30.83864421 -46.125 38.2109375 C-45.24633355 45.33179687 -40.72001169 49.7025016 -35.3984375 54.12109375 C-30.57017619 57.42765185 -24.32420546 56.73871687 -18.75 56.25 C-12.84745117 54.7131838 -9.30896273 51.29365204 -5.94140625 46.3203125 C-2.98514489 41.18320259 -2.24121997 36.37660373 -3.08203125 30.58984375 C-4.67702985 25.00268493 -8.15529755 20.0616752 -12.9375 16.75 C-22.68407726 11.55182546 -33.17693884 13.14561075 -40.5 21.1875 Z " fill="#000000" transform="translate(126.75,394.75)"/>
<path d="M0 0 C9.16878285 6.5491306 15.2041191 15.53226118 17.625 26.5625 C19.57029758 39.80548738 16.60563019 51.30435207 8.93359375 62.15234375 C2.59918115 70.04463973 -5.83961663 75.08771348 -15.75 77.25 C-30.43256601 78.1376477 -41.25143261 76.76262476 -53.23828125 67.51171875 C-61.24809768 60.29914688 -66.38088548 50.72400646 -67.12890625 39.9375 C-67.6925561 25.7296365 -64.44693006 15.01878416 -54.75 4.25 C-39.09167734 -9.74641113 -17.628733 -10.80756495 0 0 Z M-40.5 21.1875 C-45.30239972 26.80111589 -46.26849963 30.83864421 -46.125 38.2109375 C-45.24633355 45.33179687 -40.72001169 49.7025016 -35.3984375 54.12109375 C-30.57017619 57.42765185 -24.32420546 56.73871687 -18.75 56.25 C-12.84745117 54.7131838 -9.30896273 51.29365204 -5.94140625 46.3203125 C-2.98514489 41.18320259 -2.24121997 36.37660373 -3.08203125 30.58984375 C-4.67702985 25.00268493 -8.15529755 20.0616752 -12.9375 16.75 C-22.68407726 11.55182546 -33.17693884 13.14561075 -40.5 21.1875 Z " fill="#000000" transform="translate(126.75,286.75)"/>
<path d="M0 0 C0.71128241 -0.00794881 1.42256481 -0.01589762 2.15540123 -0.02408731 C4.53361896 -0.04330393 6.90944763 -0.01972421 9.28759766 0.0038147 C10.99449551 -0.00104239 12.70138769 -0.00848227 14.40826416 -0.01831055 C19.04069142 -0.0371198 23.6722729 -0.01828664 28.30463409 0.00835371 C33.1523094 0.03098948 37.99994328 0.02276719 42.84765625 0.01885986 C50.98858455 0.0170941 59.12917972 0.03925153 67.27001953 0.07608032 C76.68197063 0.11841578 86.09343371 0.12543542 95.50546074 0.1129564 C104.55947183 0.10156665 113.61331105 0.1128632 122.66729736 0.1353035 C126.52047911 0.14459232 130.3735557 0.14634459 134.22674561 0.14213181 C138.76427951 0.13836416 143.30131681 0.15458692 147.83873749 0.18625259 C149.50400488 0.19473688 151.16932266 0.19644026 152.83460236 0.19087219 C155.10805305 0.18442393 157.380022 0.20259746 159.65332031 0.22705078 C160.92535309 0.23115652 162.19738586 0.23526226 163.50796509 0.23949242 C167.40295482 0.83682348 169.05359938 2.0039157 171.82666016 4.7484436 C173.42752643 7.95017614 173.32583105 11.27421419 172.82666016 14.7484436 C171.03302105 17.55847821 169.8078508 19.25784828 166.82666016 20.7484436 C164.55771767 20.85599067 162.28554077 20.8968298 160.01408386 20.90907288 C159.30536473 20.9141607 158.5966456 20.91924852 157.86645013 20.92449051 C155.47973503 20.94024944 153.09305027 20.94874905 150.70629883 20.95718384 C148.99985052 20.96671943 147.29340417 20.97661046 145.58695984 20.98683167 C139.97287296 21.01824739 134.3587711 21.03848515 128.74462891 21.05703735 C127.79021227 21.06033468 126.83579564 21.063632 125.85245728 21.06702924 C116.85535501 21.09780844 107.85824946 21.1245223 98.86110973 21.14144802 C87.34315778 21.16336829 75.82567122 21.2053658 64.30790538 21.27488559 C56.21443816 21.32208264 48.12109671 21.34637574 40.02749616 21.35364491 C35.19086304 21.35860726 30.35475416 21.37374327 25.51827049 21.41338921 C20.9684333 21.4501938 16.4194211 21.45868582 11.86946297 21.44538307 C10.19930601 21.44543712 8.52911308 21.45577505 6.85909271 21.4771347 C4.57845747 21.50474555 2.30084598 21.49534446 0.02018738 21.47669983 C-1.25574185 21.48093177 -2.53167109 21.48516371 -3.84626484 21.48952389 C-8.50199834 20.45249518 -9.53245012 18.64594186 -12.17333984 14.7484436 C-12.83740234 12.6234436 -12.83740234 12.6234436 -12.79833984 10.7484436 C-12.81123047 10.1296936 -12.82412109 9.5109436 -12.83740234 8.8734436 C-10.69999689 2.03374614 -6.80327829 -0.00179428 0 0 Z " fill="#000000" transform="translate(179.17333984375,397.2515563964844)"/>
<path d="M0 0 C0.71128241 -0.00794881 1.42256481 -0.01589762 2.15540123 -0.02408731 C4.53361896 -0.04330393 6.90944763 -0.01972421 9.28759766 0.0038147 C10.99449551 -0.00104239 12.70138769 -0.00848227 14.40826416 -0.01831055 C19.04069142 -0.0371198 23.6722729 -0.01828664 28.30463409 0.00835371 C33.1523094 0.03098948 37.99994328 0.02276719 42.84765625 0.01885986 C50.98858455 0.0170941 59.12917972 0.03925153 67.27001953 0.07608032 C76.68197063 0.11841578 86.09343371 0.12543542 95.50546074 0.1129564 C104.55947183 0.10156665 113.61331105 0.1128632 122.66729736 0.1353035 C126.52047911 0.14459232 130.3735557 0.14634459 134.22674561 0.14213181 C138.76427951 0.13836416 143.30131681 0.15458692 147.83873749 0.18625259 C149.50400488 0.19473688 151.16932266 0.19644026 152.83460236 0.19087219 C155.10805305 0.18442393 157.380022 0.20259746 159.65332031 0.22705078 C160.92535309 0.23115652 162.19738586 0.23526226 163.50796509 0.23949242 C167.40295482 0.83682348 169.05359938 2.0039157 171.82666016 4.7484436 C173.42752643 7.95017614 173.32583105 11.27421419 172.82666016 14.7484436 C171.03302105 17.55847821 169.8078508 19.25784828 166.82666016 20.7484436 C164.55771767 20.85599067 162.28554077 20.8968298 160.01408386 20.90907288 C159.30536473 20.9141607 158.5966456 20.91924852 157.86645013 20.92449051 C155.47973503 20.94024944 153.09305027 20.94874905 150.70629883 20.95718384 C148.99985052 20.96671943 147.29340417 20.97661046 145.58695984 20.98683167 C139.97287296 21.01824739 134.3587711 21.03848515 128.74462891 21.05703735 C127.79021227 21.06033468 126.83579564 21.063632 125.85245728 21.06702924 C116.85535501 21.09780844 107.85824946 21.1245223 98.86110973 21.14144802 C87.34315778 21.16336829 75.82567122 21.2053658 64.30790538 21.27488559 C56.21443816 21.32208264 48.12109671 21.34637574 40.02749616 21.35364491 C35.19086304 21.35860726 30.35475416 21.37374327 25.51827049 21.41338921 C20.9684333 21.4501938 16.4194211 21.45868582 11.86946297 21.44538307 C10.19930601 21.44543712 8.52911308 21.45577505 6.85909271 21.4771347 C4.57845747 21.50474555 2.30084598 21.49534446 0.02018738 21.47669983 C-1.25574185 21.48093177 -2.53167109 21.48516371 -3.84626484 21.48952389 C-8.50199834 20.45249518 -9.53245012 18.64594186 -12.17333984 14.7484436 C-12.83740234 12.6234436 -12.83740234 12.6234436 -12.79833984 10.7484436 C-12.81123047 10.1296936 -12.82412109 9.5109436 -12.83740234 8.8734436 C-10.69999689 2.03374614 -6.80327829 -0.00179428 0 0 Z " fill="#000000" transform="translate(179.17333984375,289.2515563964844)"/>
<path d="M0 0 C0.71128241 -0.00794881 1.42256481 -0.01589762 2.15540123 -0.02408731 C4.53361896 -0.04330393 6.90944763 -0.01972421 9.28759766 0.0038147 C10.99449551 -0.00104239 12.70138769 -0.00848227 14.40826416 -0.01831055 C19.04069142 -0.0371198 23.6722729 -0.01828664 28.30463409 0.00835371 C33.1523094 0.03098948 37.99994328 0.02276719 42.84765625 0.01885986 C50.98858455 0.0170941 59.12917972 0.03925153 67.27001953 0.07608032 C76.68197063 0.11841578 86.09343371 0.12543542 95.50546074 0.1129564 C104.55947183 0.10156665 113.61331105 0.1128632 122.66729736 0.1353035 C126.52047911 0.14459232 130.3735557 0.14634459 134.22674561 0.14213181 C138.76427951 0.13836416 143.30131681 0.15458692 147.83873749 0.18625259 C149.50400488 0.19473688 151.16932266 0.19644026 152.83460236 0.19087219 C155.10805305 0.18442393 157.380022 0.20259746 159.65332031 0.22705078 C160.92535309 0.23115652 162.19738586 0.23526226 163.50796509 0.23949242 C167.40295482 0.83682348 169.05359938 2.0039157 171.82666016 4.7484436 C173.42752643 7.95017614 173.32583105 11.27421419 172.82666016 14.7484436 C171.03302105 17.55847821 169.8078508 19.25784828 166.82666016 20.7484436 C164.55771767 20.85599067 162.28554077 20.8968298 160.01408386 20.90907288 C159.30536473 20.9141607 158.5966456 20.91924852 157.86645013 20.92449051 C155.47973503 20.94024944 153.09305027 20.94874905 150.70629883 20.95718384 C148.99985052 20.96671943 147.29340417 20.97661046 145.58695984 20.98683167 C139.97287296 21.01824739 134.3587711 21.03848515 128.74462891 21.05703735 C127.79021227 21.06033468 126.83579564 21.063632 125.85245728 21.06702924 C116.85535501 21.09780844 107.85824946 21.1245223 98.86110973 21.14144802 C87.34315778 21.16336829 75.82567122 21.2053658 64.30790538 21.27488559 C56.21443816 21.32208264 48.12109671 21.34637574 40.02749616 21.35364491 C35.19086304 21.35860726 30.35475416 21.37374327 25.51827049 21.41338921 C20.9684333 21.4501938 16.4194211 21.45868582 11.86946297 21.44538307 C10.19930601 21.44543712 8.52911308 21.45577505 6.85909271 21.4771347 C4.57845747 21.50474555 2.30084598 21.49534446 0.02018738 21.47669983 C-1.25574185 21.48093177 -2.53167109 21.48516371 -3.84626484 21.48952389 C-8.50199834 20.45249518 -9.53245012 18.64594186 -12.17333984 14.7484436 C-12.83740234 12.6234436 -12.83740234 12.6234436 -12.79833984 10.7484436 C-12.81123047 10.1296936 -12.82412109 9.5109436 -12.83740234 8.8734436 C-10.69999689 2.03374614 -6.80327829 -0.00179428 0 0 Z " fill="#000000" transform="translate(179.17333984375,181.25155639648438)"/>
<path d="M0 0 C2.80703896 1.34040619 3.86054551 2.54745461 6 5 C7.24255654 9.02003587 7.40021063 11.05579331 5.75338745 14.94110107 C4.03344016 17.94166146 2.31617893 20.06398853 -0.11669922 22.50488281 C-0.94120575 23.33884583 -1.76571228 24.17280884 -2.61520386 25.03204346 C-3.50273346 25.91350037 -4.39026306 26.79495728 -5.3046875 27.703125 C-6.22081818 28.62212585 -7.13694885 29.54112671 -8.08084106 30.48797607 C-10.0143912 32.42593303 -11.95322189 34.35840085 -13.89599609 36.28710938 C-16.37989843 38.75389681 -18.85005512 41.23394271 -21.3164196 43.71825027 C-23.68022722 46.09552886 -26.05542603 48.46128644 -28.4296875 50.828125 C-29.75490921 52.16245575 -29.75490921 52.16245575 -31.10690308 53.52374268 C-31.93771393 54.34509705 -32.76852478 55.16645142 -33.62451172 56.01269531 C-34.35048553 56.73628235 -35.07645935 57.45986938 -35.82443237 58.2053833 C-39.13628187 60.9373142 -41.9224605 61.93661532 -46.1875 62.1875 C-52.1050351 60.34433333 -55.68501685 56.28763191 -60 52 C-61.37591073 50.66105606 -62.75224315 49.32254536 -64.12890625 47.984375 C-65.58741367 46.55358655 -67.04444118 45.12128799 -68.5 43.6875 C-69.20697021 42.99390381 -69.91394043 42.30030762 -70.64233398 41.58569336 C-71.63922241 40.59001343 -71.63922241 40.59001343 -72.65625 39.57421875 C-73.25244141 38.98213623 -73.84863281 38.39005371 -74.46289062 37.7800293 C-77.66643289 34.07020931 -78.43883251 30.91368565 -78.328125 25.96875 C-77.80947233 22.85683396 -76.21445226 21.14932131 -74 19 C-70.35217203 17.17608602 -66.95251371 17.0735356 -63 18 C-59.22367734 20.57185611 -56.1612085 23.71740109 -53 27 C-51.45875531 28.52126097 -49.91712598 30.04213241 -48.375 31.5625 C-47.24736221 32.70573752 -46.12128264 33.8505287 -45 35 C-40.18284878 30.98878333 -35.66086108 26.78739891 -31.26171875 22.32421875 C-30.65487747 21.71359085 -30.04803619 21.10296295 -29.42280579 20.47383118 C-27.50856078 18.54749227 -25.59763339 16.61791543 -23.6875 14.6875 C-21.15259745 12.12605066 -18.61442782 9.56790438 -16.07421875 7.01171875 C-15.49403488 6.42323654 -14.91385101 5.83475433 -14.31608582 5.22843933 C-9.71407673 0.59816614 -6.63817827 -1.07146848 0 0 Z " fill="#000000" transform="translate(138,181)"/>
<path d="M0 0 C0.89978073 -0.00730133 1.79956146 -0.01460266 2.72660828 -0.02212524 C5.69546449 -0.03831352 8.6621291 -0.011142 11.63085938 0.01806641 C13.69681802 0.01910393 15.76277866 0.01806728 17.82873535 0.01504517 C22.15646887 0.01522451 26.48345643 0.03605965 30.81103516 0.07226562 C36.35631866 0.11764121 41.90051243 0.11872765 47.44593048 0.10523033 C51.71138177 0.09854493 55.97658493 0.11182158 60.24198914 0.1314888 C62.28650107 0.13918311 64.33104063 0.14149323 66.37556458 0.13831711 C69.23398345 0.13757469 72.09100935 0.16284212 74.94921875 0.1953125 C75.79300583 0.19035767 76.63679291 0.18540283 77.50614929 0.18029785 C81.51667443 0.2529522 83.51386544 0.45444048 86.98791504 2.64248657 C89.77532008 5.59186939 89.88306844 7.63610416 90.11523438 11.55712891 C89.91663255 14.64649063 88.96208279 16.40224952 86.97460938 18.74462891 C83.05956862 21.35465608 79.72148777 21.05495318 75.17626953 21.06689453 C73.82703651 21.08178925 73.82703651 21.08178925 72.45054626 21.09698486 C69.47155715 21.12622219 66.49278096 21.13983012 63.51367188 21.15087891 C61.44485467 21.1623816 59.37603753 21.17389707 57.30722046 21.1854248 C52.96782436 21.20644257 48.62850235 21.21812955 44.2890625 21.22509766 C38.72791748 21.2360722 33.16775065 21.28413643 27.60691261 21.34104156 C23.33294815 21.37828354 19.05921968 21.38870482 14.78510666 21.39176941 C12.73494488 21.39782529 10.6847874 21.41389231 8.6347847 21.44013977 C5.76634457 21.47424689 2.90029879 21.47050835 0.03173828 21.45751953 C-1.23865547 21.48516388 -1.23865547 21.48516388 -2.53471375 21.5133667 C-8.15905096 21.43356891 -8.15905096 21.43356891 -10.67119217 19.43583679 C-12.99165883 16.73806437 -14.72583488 14.36595326 -14.65039062 10.74462891 C-14.66328125 10.12587891 -14.67617187 9.50712891 -14.68945312 8.86962891 C-12.20572764 0.92170735 -7.46026064 -0.13516271 0 0 Z " fill="#000000" transform="translate(181.025390625,441.25537109375)"/>
<path d="M0 0 C0.89978073 -0.00730133 1.79956146 -0.01460266 2.72660828 -0.02212524 C5.69546449 -0.03831352 8.6621291 -0.011142 11.63085938 0.01806641 C13.69681802 0.01910393 15.76277866 0.01806728 17.82873535 0.01504517 C22.15646887 0.01522451 26.48345643 0.03605965 30.81103516 0.07226562 C36.35631866 0.11764121 41.90051243 0.11872765 47.44593048 0.10523033 C51.71138177 0.09854493 55.97658493 0.11182158 60.24198914 0.1314888 C62.28650107 0.13918311 64.33104063 0.14149323 66.37556458 0.13831711 C69.23398345 0.13757469 72.09100935 0.16284212 74.94921875 0.1953125 C75.79300583 0.19035767 76.63679291 0.18540283 77.50614929 0.18029785 C81.51667443 0.2529522 83.51386544 0.45444048 86.98791504 2.64248657 C89.77532008 5.59186939 89.88306844 7.63610416 90.11523438 11.55712891 C89.91663255 14.64649063 88.96208279 16.40224952 86.97460938 18.74462891 C83.05956862 21.35465608 79.72148777 21.05495318 75.17626953 21.06689453 C73.82703651 21.08178925 73.82703651 21.08178925 72.45054626 21.09698486 C69.47155715 21.12622219 66.49278096 21.13983012 63.51367188 21.15087891 C61.44485467 21.1623816 59.37603753 21.17389707 57.30722046 21.1854248 C52.96782436 21.20644257 48.62850235 21.21812955 44.2890625 21.22509766 C38.72791748 21.2360722 33.16775065 21.28413643 27.60691261 21.34104156 C23.33294815 21.37828354 19.05921968 21.38870482 14.78510666 21.39176941 C12.73494488 21.39782529 10.6847874 21.41389231 8.6347847 21.44013977 C5.76634457 21.47424689 2.90029879 21.47050835 0.03173828 21.45751953 C-1.23865547 21.48516388 -1.23865547 21.48516388 -2.53471375 21.5133667 C-8.15905096 21.43356891 -8.15905096 21.43356891 -10.67119217 19.43583679 C-12.99165883 16.73806437 -14.72583488 14.36595326 -14.65039062 10.74462891 C-14.66328125 10.12587891 -14.67617187 9.50712891 -14.68945312 8.86962891 C-12.20572764 0.92170735 -7.46026064 -0.13516271 0 0 Z " fill="#000000" transform="translate(181.025390625,333.25537109375)"/>
<path d="M0 0 C0.89978073 -0.00730133 1.79956146 -0.01460266 2.72660828 -0.02212524 C5.69546449 -0.03831352 8.6621291 -0.011142 11.63085938 0.01806641 C13.69681802 0.01910393 15.76277866 0.01806728 17.82873535 0.01504517 C22.15646887 0.01522451 26.48345643 0.03605965 30.81103516 0.07226562 C36.35631866 0.11764121 41.90051243 0.11872765 47.44593048 0.10523033 C51.71138177 0.09854493 55.97658493 0.11182158 60.24198914 0.1314888 C62.28650107 0.13918311 64.33104063 0.14149323 66.37556458 0.13831711 C69.23398345 0.13757469 72.09100935 0.16284212 74.94921875 0.1953125 C75.79300583 0.19035767 76.63679291 0.18540283 77.50614929 0.18029785 C81.51667443 0.2529522 83.51386544 0.45444048 86.98791504 2.64248657 C89.77532008 5.59186939 89.88306844 7.63610416 90.11523438 11.55712891 C89.91663255 14.64649063 88.96208279 16.40224952 86.97460938 18.74462891 C83.05956862 21.35465608 79.72148777 21.05495318 75.17626953 21.06689453 C73.82703651 21.08178925 73.82703651 21.08178925 72.45054626 21.09698486 C69.47155715 21.12622219 66.49278096 21.13983012 63.51367188 21.15087891 C61.44485467 21.1623816 59.37603753 21.17389707 57.30722046 21.1854248 C52.96782436 21.20644257 48.62850235 21.21812955 44.2890625 21.22509766 C38.72791748 21.2360722 33.16775065 21.28413643 27.60691261 21.34104156 C23.33294815 21.37828354 19.05921968 21.38870482 14.78510666 21.39176941 C12.73494488 21.39782529 10.6847874 21.41389231 8.6347847 21.44013977 C5.76634457 21.47424689 2.90029879 21.47050835 0.03173828 21.45751953 C-1.23865547 21.48516388 -1.23865547 21.48516388 -2.53471375 21.5133667 C-8.15905096 21.43356891 -8.15905096 21.43356891 -10.67119217 19.43583679 C-12.99165883 16.73806437 -14.72583488 14.36595326 -14.65039062 10.74462891 C-14.66328125 10.12587891 -14.67617187 9.50712891 -14.68945312 8.86962891 C-12.20572764 0.92170735 -7.46026064 -0.13516271 0 0 Z " fill="#000000" transform="translate(181.025390625,225.25537109375)"/>
<path d="M0 0 C3.125 1.875 3.125 1.875 5 5 C5.98876625 10.02622846 5.7769173 13.70513784 3.125 18.125 C-1.27686274 20.76611764 -4.99147509 21.01979818 -10 20 C-13.41421647 17.63095184 -14.64346607 16.02503506 -16 12.125 C-16 8.09693738 -14.89929459 5.52726138 -13 2 C-8.74070434 -0.83953044 -4.99617057 -0.73987876 0 0 Z " fill="#000000" transform="translate(407,290)"/>
</svg>
